<?xml version="1.0" encoding="UTF-8"?><svg id="Layer_1" xmlns="http://www.w3.org/2000/svg" viewBox="0 0 153.09 153.09"><defs><style>.cls-1{fill:#d45d3d;}.cls-2{fill:#1d1d1b;}</style></defs><circle class="cls-1" cx="76.54" cy="76.54" r="76.54"/><g><path class="cls-2" d="M35.55,67.52h26.57v-23.82h13.99v63.02h-13.99v-26.6h-26.57v26.6h-13.99V43.69h13.99v23.82Z"/><path class="cls-2" d="M133.34,86.67c0,12.49-9.4,21.21-27.6,21.21-15.11,0-24.55-8.85-24.55-20.15v-1.22h15.02v1.22c0,5.44,5.85,7.32,11.62,7.32s11.16-1.59,11.16-7.32c0-4.64-6.7-6.24-14.46-8.08-9.93-2.36-22.29-5.3-22.29-17.04s10.18-20.17,25.91-20.17c14.5,0,24.64,8.31,24.64,20.17v1.21h-13.8v-1.21c0-4.77-6.21-7.63-12.23-7.63-4.02,0-9.98,1.9-9.98,6.48s6.42,5.87,13.85,7.51c10.12,2.27,22.71,5.09,22.71,17.69Z"/></g></svg>