<svg viewBox="0 0 11 10" fill="none" xmlns="http://www.w3.org/2000/svg">
    <g clip-path="url(#clip0_118_2)">
        <path d="M0.00398758 10C-0.0216967 9.53875 0.0239642 8.16932 1.23112 6.57356C1.4366 6.30139 1.67489 6.04641 1.9403 5.81579C2.05159 5.71838 2.15576 5.6353 2.24137 5.5737C2.49393 5.39608 2.71082 5.26429 2.88491 5.18264L3.27588 4.99928L2.88491 4.81593C2.71225 4.73428 2.49393 4.60249 2.23995 4.42344C2.15576 4.36327 2.05159 4.28019 1.93887 4.18278C1.67346 3.95216 1.43517 3.69861 1.2297 3.42644C0.0253912 1.83068 -0.0216967 0.461252 0.00398758 0H0.894375C1.02708 3.78026 4.84405 4.43203 5.75441 4.53373V5.46627C4.84405 5.56797 1.02708 6.21974 0.894375 10H0.00398758Z"/>
        <path d="M5.25106 10C5.22538 9.53875 5.27104 8.16932 6.4782 6.57356C6.68367 6.30139 6.92196 6.04641 7.18737 5.81579C7.29867 5.71838 7.40283 5.6353 7.48844 5.5737C7.74101 5.39608 7.9579 5.26429 8.13198 5.18264L8.52295 4.99928L8.13198 4.81593C7.95932 4.73428 7.74101 4.60249 7.48702 4.42344C7.40283 4.36327 7.29867 4.28019 7.18594 4.18278C6.92054 3.95216 6.68224 3.69861 6.47677 3.42644C5.27104 1.83068 5.22538 0.461252 5.25106 0H6.14145C6.27415 3.78026 10.0911 4.43203 11.0015 4.53373V5.46627C10.0911 5.56797 6.27415 6.21974 6.14145 10H5.25106Z"/>
    </g>
    <defs>
        <clipPath id="clip0_118_2">
            <rect width="11" height="10" fill="white"/>
        </clipPath>
    </defs>
</svg>
