<?xml version="1.0" encoding="UTF-8"?>
<svg id="Layer_1" xmlns="http://www.w3.org/2000/svg" viewBox="0 0 139.39 52.73">
    <path class="cls-1" d="M15.24,11.46H3.01v10.5H.83V.43H3.01V9.35H15.24V.43h2.19V21.94h-2.19V11.46Z"/>
    <path class="cls-1"
          d="M23.37,15.75l-2.19,6.18h-2.3L26.92,.43h2.42l8.03,21.5h-2.32l-2.21-6.18h-9.47Zm.77-2.09h7.97l-3.98-11.2-4,11.2Z"/>
    <path class="cls-1" d="M41.02,2.95V21.96h-2.19V.43h3.05l13.8,18.98V.43h2.19V21.94h-3.05L41.02,2.93v.02Z"/>
    <path class="cls-1"
          d="M63.82,15.75l-2.19,6.18h-2.3L67.36,.43h2.42l8.03,21.5h-2.32l-2.21-6.18h-9.47Zm.77-2.09h7.97l-3.98-11.2-4,11.2Z"/>
    <path class="cls-1" d="M81.46,2.95V21.96h-2.19V.43h3.05l13.8,18.98V.43h2.19V21.94h-3.05L81.46,2.93v.02Z"/>
    <path class="cls-1"
          d="M120.43,14.1c-1.08,6.03-5.61,8.27-9.87,8.27-6.14,0-10.12-4.39-10.12-11.18,0-3.47,1.04-6.36,2.99-8.35,1.79-1.83,4.31-2.84,7.13-2.84,5.04,0,8.62,2.89,9.75,7.74h-2.24c-1.14-4.08-4.37-5.57-7.5-5.57-3.5,0-7.11,2.07-7.82,7.17h9.27v2.09h-9.39c.12,6.44,4.1,8.74,7.94,8.74,4.06,0,6.77-2.17,7.64-6.08h2.23v.02Z"/>
    <path class="cls-1" d="M136.79,11.46h-12.23v10.5h-2.19V.43h2.19V9.35h12.23V.43h2.19V21.94h-2.19V11.46Z"/>
    <path class="cls-1"
          d="M15.58,46.37c0,2.8-1.99,6.36-7.78,6.36-5.16,0-7.8-3.68-7.8-6.83H2.19c0,2.26,2.17,4.65,5.85,4.65,3.94,0,5.4-2.19,5.4-4.43,0-6.06-12.86-1.32-12.86-10.1,0-3.17,2.56-5.67,7.13-5.67,4.29,0,6.93,2.64,6.93,6.34h-2.19c0-2.36-1.79-4.15-4.77-4.15s-4.94,1.22-4.94,3.56c0,6.38,12.84,1.58,12.84,10.26v.02Z"/>
    <path class="cls-1"
          d="M40.11,44.44c-1.08,6.03-5.61,8.27-9.87,8.27-6.14,0-10.12-4.39-10.12-11.18,0-3.47,1.04-6.36,2.99-8.35,1.79-1.83,4.33-2.84,7.13-2.84,5.04,0,8.62,2.89,9.75,7.74h-2.24c-1.14-4.08-4.37-5.57-7.5-5.57-3.5,0-7.11,2.07-7.82,7.17h9.27v2.09h-9.39c.12,6.44,4.1,8.74,7.94,8.74,4.06,0,6.77-2.17,7.64-6.08h2.23v.02Z"/>
    <path class="cls-1" d="M47.45,41.78v10.5h-2.19V30.78h14.16v2.09h-11.99v6.83h9.9v2.09h-9.88Z"/>
    <path class="cls-1" d="M64.13,52.28V30.78h2.19v21.5h-2.19Z"/>
    <path class="cls-1"
          d="M80.26,52.28h-7.86V30.78h7.86c5.59,0,10.16,4.84,10.16,10.75s-4.55,10.75-10.16,10.75Zm-5.67-2.09h5.4c3.94,0,7.8-3.23,8.21-7.76v-.1h0v-.14c.02-.2,.04-.41,.04-.65v-.24h0v-.04c-.14-4.78-4.1-8.39-8.25-8.39h-5.4v17.31Z"/>
    <path class="cls-1"
          d="M97.47,46.1l-2.19,6.18h-2.3l8.03-21.5h2.42l8.03,21.5h-2.32l-2.21-6.18h-9.47Zm.77-2.09h7.97l-3.98-11.2-4,11.2Z"/>
    <path class="cls-1"
          d="M131.71,46.61c0,3.41-2.15,5.67-7.13,5.67h-8.43V30.78h8.13c3.74,0,6.1,2.91,6.1,6.05,0,1.4-.67,3.62-2.74,4.35,3.17,.47,4.04,3.05,4.04,5.43h.02Zm-13.39-13.7v7.32h5.3c2.97,0,4.57-.89,4.57-3.62,0-2.17-1.5-3.7-4.55-3.7h-5.32Zm11.22,13.55c0-2.17-1.71-4.12-4.65-4.12h-6.6v7.84h6.66c2.72,0,4.59-1.04,4.59-3.72Z"/>
    <path class="cls-1" d="M137.2,52.28V30.78h2.19v21.5h-2.19Z"/>
</svg>
