<?xml version="1.0" encoding="UTF-8"?>
<svg id="Layer_1" xmlns="http://www.w3.org/2000/svg" viewBox="0 0 295.21 318.66">
    <defs>
        <style>.cls-1{fill:#d35d3d;}</style>
    </defs>
    <polygon class="cls-1"
             points="96.63 20 136.38 20 136.38 140 156.38 140 156.38 100 196.13 100 196.13 140 216.13 140 216.13 100 235.46 100 235.46 140 255.46 140 255.46 120 275.21 120 275.21 219.27 255.88 219.27 255.88 258.66 235.88 258.66 235.88 298.66 216.13 298.66 216.13 280 196.13 280 196.13 298.6 117.03 298.6 116.91 278.57 97.43 278.6 97.39 260 77.52 259.88 77.39 240 58.49 240 58.49 200 39.11 200 39.11 179.88 20 180.05 20 140 56.88 140 56.88 160 76.63 160 76.63 179.25 96.63 179.25 96.63 20"/>
    <g>
        <polygon
                points="56.88 140 56.88 150 56.88 160 66.75 160 76.63 160 76.63 169.63 76.63 179.25 86.63 179.25 96.63 179.25 96.63 99.63 96.63 20 116.5 20 136.38 20 136.38 80 136.38 140 146.38 140 156.38 140 156.38 120 156.38 100 176.25 100 196.13 100 196.13 120 196.13 140 206.13 140 216.13 140 216.13 120 216.13 100 225.88 100 235.63 100 235.58 89.92 235.5 79.88 195.93 79.88 156.38 79.88 156.38 49.95 156.38 20 146.45 19.95 136.5 19.88 136.43 9.92 136.38 0 116.5 0 96.63 0 96.58 9.92 96.5 19.88 86.58 19.95 76.63 20 76.63 80 76.63 140 66.83 139.95 57 139.88 56.93 129.92 56.88 120 37.13 120 19.23 120 19.23 130 19.23 140 37.13 140 56.88 140"/>
        <path d="M285.59,119.98c-5.3-.03-9.77-.05-9.92-.08-.25-.03-.35-2.23-.4-9.98l-.05-9.92h-39.75v40h20v-20h19.75v99.5h20V120l-9.62-.02Z"/>
        <polygon points="20 139.79 10 139.79 0 139.79 0 160.05 0 180.05 10 180.05 20 180.05 20 160.05 20 139.79"/>
        <polygon
                points="39.11 179.88 29.24 179.95 19.36 180 19.36 189.92 19.34 199.88 29.24 199.95 39.11 200 39.11 189.92 39.11 179.88"/>
        <polygon points="58.49 200 48.49 200 38.49 200 38.49 220 38.49 240 48.49 240 58.49 240 58.49 220 58.49 200"/>
        <polygon
                points="97.39 260 87.47 259.95 77.52 259.88 77.44 249.92 77.39 240 67.52 240 57.64 240 57.64 250 57.64 260 67.52 260 77.39 260 77.39 270 77.39 280 87.39 280 97.39 280 97.39 270 97.39 260"/>
        <polygon
                points="117.03 298.6 116.98 288.6 116.91 278.57 106.98 278.6 97.03 278.6 97.03 298.6 97.03 318.6 146.66 318.6 196.28 318.6 196.28 308.6 196.28 298.6 156.66 298.6 117.03 298.6"/>
        <polygon
                points="136.38 179.1 136.38 219.1 136.38 259.1 146.38 259.1 156.38 259.1 156.38 219.1 156.38 179.1 146.38 179.1 136.38 179.1"/>
        <polygon
                points="176.13 219.1 176.13 259.1 186.13 259.1 196.13 259.1 196.13 219.1 196.13 179.1 186.13 179.1 176.13 179.1 176.13 219.1"/>
        <polygon
                points="216.13 280 206.13 280 196.13 280 196.13 290 196.13 300 206.13 300 216.13 300 216.13 290 216.13 280"/>
        <polygon
                points="255.88 219.27 255.88 239.27 255.88 259.27 265.75 259.27 275.63 259.27 275.63 239.27 275.63 219.27 265.75 219.27 255.88 219.27"/>
        <polygon
                points="235.88 179.1 225.88 179.1 215.88 179.1 215.93 219.02 216 258.97 225.95 259.05 235.88 259.1 235.88 219.1 235.88 179.1"/>
        <polygon
                points="235.88 258.66 235.88 278.66 235.88 298.66 226 298.66 216.13 298.66 216.13 308.66 216.13 318.66 236 318.66 255.88 318.66 255.88 288.66 255.88 258.66 245.88 258.66 235.88 258.66"/>
    </g>
</svg>
