<svg viewBox="0 0 6 11" fill="none" xmlns="http://www.w3.org/2000/svg">
    <g clip-path="url(#clip0_118_5)">
        <path d="M0.00417953 11C-0.0226062 10.4926 0.0250129 8.98625 1.28394 7.23091C1.49823 6.93153 1.74674 6.65105 2.02352 6.39736C2.1396 6.29022 2.24823 6.19883 2.33751 6.13107C2.60091 5.93568 2.8271 5.79072 3.00864 5.7009L3.41638 5.49921L3.00864 5.29752C2.82858 5.20771 2.60091 5.06274 2.33602 4.86578C2.24823 4.7996 2.1396 4.70821 2.02204 4.60106C1.74525 4.34737 1.49674 4.06847 1.28245 3.76909C0.026501 2.01375 -0.0226062 0.507377 0.00417953 0H0.932751C1.07114 4.15829 5.0518 4.87523 6.0012 4.98711V6.01289C5.0518 6.12477 1.07114 6.84171 0.932751 11H0.00417953Z"
              />
    </g>
    <defs>
        <clipPath id="clip0_118_5">
            <rect width="6" height="11"/>
        </clipPath>
    </defs>
</svg>
