<?xml version="1.0" encoding="UTF-8"?>
<svg id="Layer_1" xmlns="http://www.w3.org/2000/svg" width="387" viewBox="0 0 387.7 120.6">
    <defs>
        <style>
            .cls-1{fill:none;stroke:#d45d3c;stroke-miterlimit:10;}.cls-2{fill:#fff;font-family:ClashGroteskVariable-Medium,
            'Clash Grotesk Variable';font-size:17px;font-variation-settings:'wght' 500;}.cls-3{fill:#d45d3c;}
        </style>
    </defs>
    <rect class="cls-3" x="97.72" y="20.81" width="192.27" height="78.97"/>
    <text class="cls-2" transform="translate(130.75 59.88)">
        <tspan x="0" y="0">YOUR MESSAGE</tspan>
        <tspan x="6.57" y="20">IS ON ITS WAY!</tspan>
    </text>
    <g>
        <polygon class="cls-1" points=".5 .61 20.06 4.68 20.06 18.58 .5 15.54 .5 .61"/>
        <polygon class="cls-1" points="20.06 4.68 37.13 8.22 37.13 21.24 20.06 18.58 20.06 4.68"/>
        <polygon class="cls-1" points="37.13 8.22 52.15 11.34 52.15 23.58 37.13 21.24 37.13 8.22"/>
        <polygon class="cls-1" points="52.15 11.34 65.48 14.11 65.48 25.66 52.15 23.58 52.15 11.34"/>
        <polygon class="cls-1" points="65.48 14.11 77.37 16.58 77.37 27.51 65.48 25.66 65.48 14.11"/>
        <polygon class="cls-1" points="77.37 16.58 88.06 18.8 88.06 29.18 77.37 27.51 77.37 16.58"/>
        <polygon class="cls-1" points="88.06 18.8 97.72 20.81 97.72 30.68 88.06 29.18 88.06 18.8"/>
        <polygon class="cls-1" points=".5 15.54 20.06 18.58 20.06 32.49 .5 30.46 .5 15.54"/>
        <polygon class="cls-1" points="20.06 18.58 37.13 21.24 37.13 34.26 20.06 32.49 20.06 18.58"/>
        <polygon class="cls-1" points="37.13 21.24 52.15 23.58 52.15 35.82 37.13 34.26 37.13 21.24"/>
        <polygon class="cls-1" points="52.15 23.58 65.48 25.66 65.48 37.21 52.15 35.82 52.15 23.58"/>
        <polygon class="cls-1" points="65.48 25.66 77.37 27.51 77.37 38.44 65.48 37.21 65.48 25.66"/>
        <polygon class="cls-1" points="77.37 27.51 88.06 29.18 88.06 39.55 77.37 38.44 77.37 27.51"/>
        <polygon class="cls-1" points="88.06 29.18 97.72 30.68 97.72 40.56 88.06 39.55 88.06 29.18"/>
        <polygon class="cls-1" points=".5 30.46 20.06 32.49 20.06 46.39 .5 45.38 .5 30.46"/>
        <polygon class="cls-1" points="20.06 32.49 37.13 34.26 37.13 47.28 20.06 46.39 20.06 32.49"/>
        <polygon class="cls-1" points="37.13 34.26 52.15 35.82 52.15 48.06 37.13 47.28 37.13 34.26"/>
        <polygon class="cls-1" points="52.15 35.82 65.48 37.21 65.48 48.75 52.15 48.06 52.15 35.82"/>
        <polygon class="cls-1" points="65.48 37.21 77.37 38.44 77.37 49.37 65.48 48.75 65.48 37.21"/>
        <polygon class="cls-1" points="77.37 38.44 88.06 39.55 88.06 49.93 77.37 49.37 77.37 38.44"/>
        <polygon class="cls-1" points="88.06 39.55 97.72 40.56 97.72 50.43 88.06 49.93 88.06 39.55"/>
        <polygon class="cls-1" points=".5 45.38 20.06 46.39 20.06 60.3 .5 60.3 .5 45.38"/>
        <polygon class="cls-1" points="20.06 46.39 37.13 47.28 37.13 60.3 20.06 60.3 20.06 46.39"/>
        <polygon class="cls-1" points="37.13 47.28 52.15 48.06 52.15 60.3 37.13 60.3 37.13 47.28"/>
        <polygon class="cls-1" points="52.15 48.06 65.48 48.75 65.48 60.3 52.15 60.3 52.15 48.06"/>
        <polygon class="cls-1" points="65.48 48.75 77.37 49.37 77.37 60.3 65.48 60.3 65.48 48.75"/>
        <polygon class="cls-1" points="77.37 49.37 88.06 49.93 88.06 60.3 77.37 60.3 77.37 49.37"/>
        <polygon class="cls-1" points="88.06 49.93 97.72 50.43 97.72 60.3 88.06 60.3 88.06 49.93"/>
        <polygon class="cls-1" points=".5 60.3 20.06 60.3 20.06 74.21 .5 75.22 .5 60.3"/>
        <polygon class="cls-1" points="20.06 60.3 37.13 60.3 37.13 73.32 20.06 74.21 20.06 60.3"/>
        <polygon class="cls-1" points="37.13 60.3 52.15 60.3 52.15 72.54 37.13 73.32 37.13 60.3"/>
        <polygon class="cls-1" points="52.15 60.3 65.48 60.3 65.48 71.85 52.15 72.54 52.15 60.3"/>
        <polygon class="cls-1" points="65.48 60.3 77.37 60.3 77.37 71.23 65.48 71.85 65.48 60.3"/>
        <polygon class="cls-1" points="77.37 60.3 88.06 60.3 88.06 70.67 77.37 71.23 77.37 60.3"/>
        <polygon class="cls-1" points="88.06 60.3 97.72 60.3 97.72 70.17 88.06 70.67 88.06 60.3"/>
        <polygon class="cls-1" points=".5 75.22 20.06 74.21 20.06 88.11 .5 90.14 .5 75.22"/>
        <polygon class="cls-1" points="20.06 74.21 37.13 73.32 37.13 86.34 20.06 88.11 20.06 74.21"/>
        <polygon class="cls-1" points="37.13 73.32 52.15 72.54 52.15 84.78 37.13 86.34 37.13 73.32"/>
        <polygon class="cls-1" points="52.15 72.54 65.48 71.85 65.48 83.39 52.15 84.78 52.15 72.54"/>
        <polygon class="cls-1" points="65.48 71.85 77.37 71.23 77.37 82.16 65.48 83.39 65.48 71.85"/>
        <polygon class="cls-1" points="77.37 71.23 88.06 70.67 88.06 81.05 77.37 82.16 77.37 71.23"/>
        <polygon class="cls-1" points="88.06 70.67 97.72 70.17 97.72 80.04 88.06 81.05 88.06 70.67"/>
        <polygon class="cls-1" points=".5 90.14 20.06 88.11 20.06 102.02 .5 105.06 .5 90.14"/>
        <polygon class="cls-1" points="20.06 88.11 37.13 86.34 37.13 99.36 20.06 102.02 20.06 88.11"/>
        <polygon class="cls-1" points="37.13 86.34 52.15 84.78 52.15 97.02 37.13 99.36 37.13 86.34"/>
        <polygon class="cls-1" points="52.15 84.78 65.48 83.39 65.48 94.94 52.15 97.02 52.15 84.78"/>
        <polygon class="cls-1" points="65.48 83.39 77.37 82.16 77.37 93.09 65.48 94.94 65.48 83.39"/>
        <polygon class="cls-1" points="77.37 82.16 88.06 81.05 88.06 91.42 77.37 93.09 77.37 82.16"/>
        <polygon class="cls-1" points="88.06 81.05 97.72 80.04 97.72 89.92 88.06 91.42 88.06 81.05"/>
        <polygon class="cls-1" points=".5 105.06 20.06 102.02 20.06 115.92 .5 119.99 .5 105.06"/>
        <polygon class="cls-1" points="20.06 102.02 37.13 99.36 37.13 112.38 20.06 115.92 20.06 102.02"/>
        <polygon class="cls-1" points="37.13 99.36 52.15 97.02 52.15 109.25 37.13 112.38 37.13 99.36"/>
        <polygon class="cls-1" points="52.15 97.02 65.48 94.94 65.48 106.49 52.15 109.25 52.15 97.02"/>
        <polygon class="cls-1" points="65.48 94.94 77.37 93.09 77.37 104.02 65.48 106.49 65.48 94.94"/>
        <polygon class="cls-1" points="77.37 93.09 88.06 91.42 88.06 101.79 77.37 104.02 77.37 93.09"/>
        <polygon class="cls-1" points="88.06 91.42 97.72 89.92 97.72 99.79 88.06 101.79 88.06 91.42"/>
    </g>
    <g>
        <polygon class="cls-1" points="387.2 .61 367.64 4.68 367.64 18.58 387.2 15.54 387.2 .61"/>
        <polygon class="cls-1" points="367.64 4.68 350.57 8.22 350.57 21.24 367.64 18.58 367.64 4.68"/>
        <polygon class="cls-1" points="350.57 8.22 335.55 11.34 335.55 23.58 350.57 21.24 350.57 8.22"/>
        <polygon class="cls-1" points="335.55 11.34 322.23 14.11 322.23 25.66 335.55 23.58 335.55 11.34"/>
        <polygon class="cls-1" points="322.23 14.11 310.33 16.58 310.33 27.51 322.23 25.66 322.23 14.11"/>
        <polygon class="cls-1" points="310.33 16.58 299.64 18.8 299.64 29.18 310.33 27.51 310.33 16.58"/>
        <polygon class="cls-1" points="299.64 18.8 289.99 20.81 289.99 30.68 299.64 29.18 299.64 18.8"/>
        <polygon class="cls-1" points="387.2 15.54 367.64 18.58 367.64 32.49 387.2 30.46 387.2 15.54"/>
        <polygon class="cls-1" points="367.64 18.58 350.57 21.24 350.57 34.26 367.64 32.49 367.64 18.58"/>
        <polygon class="cls-1" points="350.57 21.24 335.55 23.58 335.55 35.82 350.57 34.26 350.57 21.24"/>
        <polygon class="cls-1" points="335.55 23.58 322.23 25.66 322.23 37.21 335.55 35.82 335.55 23.58"/>
        <polygon class="cls-1" points="322.23 25.66 310.33 27.51 310.33 38.44 322.23 37.21 322.23 25.66"/>
        <polygon class="cls-1" points="310.33 27.51 299.64 29.18 299.64 39.55 310.33 38.44 310.33 27.51"/>
        <polygon class="cls-1" points="299.64 29.18 289.99 30.68 289.99 40.56 299.64 39.55 299.64 29.18"/>
        <polygon class="cls-1" points="387.2 30.46 367.64 32.49 367.64 46.39 387.2 45.38 387.2 30.46"/>
        <polygon class="cls-1" points="367.64 32.49 350.57 34.26 350.57 47.28 367.64 46.39 367.64 32.49"/>
        <polygon class="cls-1" points="350.57 34.26 335.55 35.82 335.55 48.06 350.57 47.28 350.57 34.26"/>
        <polygon class="cls-1" points="335.55 35.82 322.23 37.21 322.23 48.75 335.55 48.06 335.55 35.82"/>
        <polygon class="cls-1" points="322.23 37.21 310.33 38.44 310.33 49.37 322.23 48.75 322.23 37.21"/>
        <polygon class="cls-1" points="310.33 38.44 299.64 39.55 299.64 49.93 310.33 49.37 310.33 38.44"/>
        <polygon class="cls-1" points="299.64 39.55 289.99 40.56 289.99 50.43 299.64 49.93 299.64 39.55"/>
        <polygon class="cls-1" points="387.2 45.38 367.64 46.39 367.64 60.3 387.2 60.3 387.2 45.38"/>
        <polygon class="cls-1" points="367.64 46.39 350.57 47.28 350.57 60.3 367.64 60.3 367.64 46.39"/>
        <polygon class="cls-1" points="350.57 47.28 335.55 48.06 335.55 60.3 350.57 60.3 350.57 47.28"/>
        <polygon class="cls-1" points="335.55 48.06 322.23 48.75 322.23 60.3 335.55 60.3 335.55 48.06"/>
        <polygon class="cls-1" points="322.23 48.75 310.33 49.37 310.33 60.3 322.23 60.3 322.23 48.75"/>
        <polygon class="cls-1" points="310.33 49.37 299.64 49.93 299.64 60.3 310.33 60.3 310.33 49.37"/>
        <polygon class="cls-1" points="299.64 49.93 289.99 50.43 289.99 60.3 299.64 60.3 299.64 49.93"/>
        <polygon class="cls-1" points="387.2 60.3 367.64 60.3 367.64 74.21 387.2 75.22 387.2 60.3"/>
        <polygon class="cls-1" points="367.64 60.3 350.57 60.3 350.57 73.32 367.64 74.21 367.64 60.3"/>
        <polygon class="cls-1" points="350.57 60.3 335.55 60.3 335.55 72.54 350.57 73.32 350.57 60.3"/>
        <polygon class="cls-1" points="335.55 60.3 322.23 60.3 322.23 71.85 335.55 72.54 335.55 60.3"/>
        <polygon class="cls-1" points="322.23 60.3 310.33 60.3 310.33 71.23 322.23 71.85 322.23 60.3"/>
        <polygon class="cls-1" points="310.33 60.3 299.64 60.3 299.64 70.67 310.33 71.23 310.33 60.3"/>
        <polygon class="cls-1" points="299.64 60.3 289.99 60.3 289.99 70.17 299.64 70.67 299.64 60.3"/>
        <polygon class="cls-1" points="387.2 75.22 367.64 74.21 367.64 88.11 387.2 90.14 387.2 75.22"/>
        <polygon class="cls-1" points="367.64 74.21 350.57 73.32 350.57 86.34 367.64 88.11 367.64 74.21"/>
        <polygon class="cls-1" points="350.57 73.32 335.55 72.54 335.55 84.78 350.57 86.34 350.57 73.32"/>
        <polygon class="cls-1" points="335.55 72.54 322.23 71.85 322.23 83.39 335.55 84.78 335.55 72.54"/>
        <polygon class="cls-1" points="322.23 71.85 310.33 71.23 310.33 82.16 322.23 83.39 322.23 71.85"/>
        <polygon class="cls-1" points="310.33 71.23 299.64 70.67 299.64 81.05 310.33 82.16 310.33 71.23"/>
        <polygon class="cls-1" points="299.64 70.67 289.99 70.17 289.99 80.04 299.64 81.05 299.64 70.67"/>
        <polygon class="cls-1" points="387.2 90.14 367.64 88.11 367.64 102.02 387.2 105.06 387.2 90.14"/>
        <polygon class="cls-1" points="367.64 88.11 350.57 86.34 350.57 99.36 367.64 102.02 367.64 88.11"/>
        <polygon class="cls-1" points="350.57 86.34 335.55 84.78 335.55 97.02 350.57 99.36 350.57 86.34"/>
        <polygon class="cls-1" points="335.55 84.78 322.23 83.39 322.23 94.94 335.55 97.02 335.55 84.78"/>
        <polygon class="cls-1" points="322.23 83.39 310.33 82.16 310.33 93.09 322.23 94.94 322.23 83.39"/>
        <polygon class="cls-1" points="310.33 82.16 299.64 81.05 299.64 91.42 310.33 93.09 310.33 82.16"/>
        <polygon class="cls-1" points="299.64 81.05 289.99 80.04 289.99 89.92 299.64 91.42 299.64 81.05"/>
        <polygon class="cls-1" points="387.2 105.06 367.64 102.02 367.64 115.92 387.2 119.99 387.2 105.06"/>
        <polygon class="cls-1" points="367.64 102.02 350.57 99.36 350.57 112.38 367.64 115.92 367.64 102.02"/>
        <polygon class="cls-1" points="350.57 99.36 335.55 97.02 335.55 109.25 350.57 112.38 350.57 99.36"/>
        <polygon class="cls-1" points="335.55 97.02 322.23 94.94 322.23 106.49 335.55 109.25 335.55 97.02"/>
        <polygon class="cls-1" points="322.23 94.94 310.33 93.09 310.33 104.02 322.23 106.49 322.23 94.94"/>
        <polygon class="cls-1" points="310.33 93.09 299.64 91.42 299.64 101.79 310.33 104.02 310.33 93.09"/>
        <polygon class="cls-1" points="299.64 91.42 289.99 89.92 289.99 99.79 299.64 101.79 299.64 91.42"/>
    </g>
</svg>
