<?xml version="1.0" encoding="UTF-8"?><svg id="Layer_1" xmlns="http://www.w3.org/2000/svg" viewBox="0 0 387.7 120.6"><defs><style>.cls-1{fill:#fff;}.cls-2{fill:none;stroke:#d45d3c;stroke-miterlimit:10;}.cls-3{fill:#d45d3c;}</style></defs><rect class="cls-3" x="97.72" y="20.81" width="192.27" height="78.97"/><g><path class="cls-1" d="M133.29,47.45c-.95,0-1.78-.21-2.48-.64-.71-.42-1.25-1.02-1.63-1.8-.38-.78-.57-1.69-.57-2.74s.19-1.96,.57-2.74c.38-.77,.92-1.38,1.63-1.8s1.53-.64,2.48-.64,1.78,.21,2.48,.64c.71,.43,1.25,1.03,1.63,1.8,.38,.78,.57,1.69,.57,2.74s-.19,1.96-.57,2.74c-.38,.78-.92,1.38-1.63,1.8-.71,.43-1.53,.64-2.48,.64Zm0-1.56c.7,0,1.27-.12,1.7-.36s.75-.62,.95-1.16,.31-1.23,.31-2.1-.1-1.58-.31-2.11-.52-.91-.95-1.15-1-.36-1.7-.36-1.26,.12-1.7,.36-.76,.62-.97,1.15-.31,1.23-.31,2.11,.1,1.57,.31,2.1,.53,.92,.97,1.16,1.01,.36,1.7,.36Z"/><path class="cls-1" d="M143.75,47.45c-.95,0-1.78-.21-2.48-.64-.71-.42-1.25-1.02-1.63-1.8-.38-.78-.57-1.69-.57-2.74s.19-1.96,.57-2.74c.38-.77,.92-1.38,1.63-1.8s1.53-.64,2.48-.64,1.78,.21,2.48,.64c.71,.43,1.25,1.03,1.63,1.8,.38,.78,.57,1.69,.57,2.74s-.19,1.96-.57,2.74c-.38,.78-.92,1.38-1.63,1.8-.71,.43-1.53,.64-2.48,.64Zm0-1.56c.7,0,1.27-.12,1.7-.36s.75-.62,.95-1.16,.31-1.23,.31-2.1-.1-1.58-.31-2.11-.52-.91-.95-1.15-1-.36-1.7-.36-1.26,.12-1.7,.36-.76,.62-.97,1.15-.31,1.23-.31,2.11,.1,1.57,.31,2.1,.53,.92,.97,1.16,1.01,.36,1.7,.36Z"/><path class="cls-1" d="M151.34,47.3h-1.61v-10.05h1.61v10.05Zm2.66-3.24h-3.66v-1.44h3.86c.67,0,1.15-.15,1.43-.44,.28-.29,.42-.8,.42-1.52s-.14-1.23-.42-1.52c-.28-.29-.76-.44-1.43-.44h-3.86v-1.46h3.66c.7,0,1.33,.14,1.88,.41s.98,.66,1.3,1.16c.32,.5,.47,1.12,.47,1.85s-.16,1.33-.47,1.84c-.31,.51-.75,.89-1.3,1.16s-1.18,.4-1.88,.4Z"/><path class="cls-1" d="M162.89,47.45c-.95,0-1.73-.14-2.35-.41-.61-.27-1.07-.66-1.37-1.16s-.44-1.07-.44-1.72v-.24h1.59v.17c0,.41,.07,.76,.22,1.04,.15,.28,.41,.49,.79,.63,.38,.14,.92,.21,1.64,.21,.75,0,1.27-.11,1.57-.32,.29-.21,.44-.55,.44-1.01,0-.31-.04-.56-.13-.76-.09-.19-.27-.35-.53-.47-.27-.12-.66-.23-1.18-.33l-1.71-.35c-.58-.11-1.07-.28-1.46-.52-.39-.23-.69-.54-.89-.91s-.31-.81-.31-1.34,.13-.97,.4-1.4,.68-.79,1.23-1.06c.56-.27,1.26-.4,2.12-.4,.92,0,1.67,.16,2.24,.46,.58,.31,1,.72,1.26,1.22,.26,.51,.4,1.06,.4,1.66v.18h-1.61v-.17c0-.42-.07-.77-.2-1.04-.13-.28-.38-.49-.72-.63s-.81-.22-1.4-.22c-.75,0-1.29,.11-1.61,.33-.32,.22-.49,.55-.49,.98,0,.31,.05,.56,.16,.74,.11,.18,.29,.32,.55,.43s.62,.21,1.08,.32l1.71,.36c.63,.13,1.15,.32,1.55,.58,.4,.25,.7,.57,.89,.95,.19,.38,.29,.82,.29,1.33s-.13,1-.39,1.44c-.26,.44-.66,.79-1.21,1.05-.55,.26-1.25,.39-2.11,.39Z"/><path class="cls-1" d="M169.57,43.99h-1.58c0-.29,0-.63-.02-1.04-.02-.4-.04-.82-.06-1.27-.02-.44-.05-.89-.08-1.32s-.04-.83-.06-1.19c-.01-.36-.02-.65-.02-.89v-1.05h2.04v1.05c0,.23,0,.53-.02,.89-.01,.36-.03,.76-.06,1.19-.03,.44-.05,.88-.07,1.32-.02,.45-.03,.87-.05,1.27-.02,.4-.03,.75-.03,1.04Zm.13,3.3h-1.85v-2.22h1.85v2.22Z"/><path class="cls-1" d="M181.87,38.7h-8.45v-1.46h8.45v1.46Zm-3.42,8.6h-1.61v-10.05h1.61v10.05Z"/><path class="cls-1" d="M184.14,47.3h-1.61v-10.05h1.61v10.05Zm5.87-4.34h-6.98v-1.46h6.98v1.46Zm.83,4.34h-1.62v-10.05h1.62v10.05Z"/><path class="cls-1" d="M194.16,47.3h-1.61v-10.05h1.61v10.05Zm5.57-8.6h-6.69v-1.46h6.69v1.46Zm-.23,4.28h-6.47v-1.47h6.47v1.47Zm.23,4.32h-6.69v-1.47h6.69v1.47Z"/><path class="cls-1" d="M202.67,47.3h-1.61v-10.05h4.31c.74,0,1.38,.12,1.92,.35,.54,.24,.96,.58,1.25,1.02s.44,.99,.44,1.63c0,.54-.11,1.02-.32,1.43-.22,.41-.53,.73-.95,.95s-.92,.35-1.52,.38v.12c.37,.12,.67,.29,.91,.52s.45,.51,.64,.86l1.52,2.79h-1.89l-1.43-2.6c-.15-.29-.31-.53-.48-.73-.17-.19-.38-.33-.63-.42-.25-.08-.58-.13-.98-.13h-1.19v3.87Zm0-8.6v3.39h2.9c.65,0,1.12-.13,1.4-.39,.28-.26,.42-.7,.42-1.32s-.14-1.02-.42-1.28c-.28-.26-.75-.4-1.4-.4h-2.9Z"/><path class="cls-1" d="M211.79,47.3h-1.61v-10.05h1.61v10.05Zm5.57-8.6h-6.69v-1.46h6.69v1.46Zm-.23,4.28h-6.47v-1.47h6.47v1.47Zm.23,4.32h-6.69v-1.47h6.69v1.47Z"/><path class="cls-1" d="M225.79,47.3h-2.36l-2.33-10.05h1.86l1.26,5.64,.42,2.79h.12l.63-2.79,1.68-5.64h2.27l1.68,5.64,.65,2.79h.1l.44-2.79,1.26-5.64h1.83l-2.34,10.05h-2.36l-1.53-5.12-.81-3.11h-.13l-.81,3.11-1.53,5.12Z"/><path class="cls-1" d="M236.46,47.3h-1.68l3.9-10.05h2.33l3.92,10.05h-1.75l-2.64-6.72-.64-1.86h-.12l-.66,1.86-2.64,6.72Zm6.56-2.63h-6.3v-1.44h6.3v1.44Z"/><path class="cls-1" d="M249.43,47.45c-.95,0-1.73-.14-2.35-.41s-1.07-.66-1.37-1.16c-.3-.5-.44-1.07-.44-1.72v-.24h1.59v.17c0,.41,.07,.76,.22,1.04,.14,.28,.41,.49,.79,.63,.38,.14,.93,.21,1.64,.21,.75,0,1.27-.11,1.57-.32,.29-.21,.44-.55,.44-1.01,0-.31-.04-.56-.13-.76-.09-.19-.27-.35-.53-.47-.26-.12-.66-.23-1.18-.33l-1.71-.35c-.58-.11-1.07-.28-1.46-.52-.39-.23-.69-.54-.89-.91s-.31-.81-.31-1.34,.13-.97,.4-1.4,.68-.79,1.23-1.06c.56-.27,1.26-.4,2.12-.4,.92,0,1.67,.16,2.24,.46,.58,.31,1,.72,1.26,1.22,.26,.51,.4,1.06,.4,1.66v.18h-1.61v-.17c0-.42-.07-.77-.2-1.04-.14-.28-.38-.49-.72-.63s-.81-.22-1.4-.22c-.75,0-1.29,.11-1.61,.33-.33,.22-.49,.55-.49,.98,0,.31,.05,.56,.16,.74,.1,.18,.29,.32,.55,.43,.26,.1,.62,.21,1.08,.32l1.71,.36c.63,.13,1.15,.32,1.55,.58,.4,.25,.7,.57,.89,.95,.19,.38,.28,.82,.28,1.33s-.13,1-.39,1.44c-.26,.44-.66,.79-1.21,1.05-.54,.26-1.25,.39-2.11,.39Z"/><path class="cls-1" d="M148.02,64.95h-1.68l3.9-10.05h2.33l3.92,10.05h-1.76l-2.64-6.72-.65-1.86h-.12l-.66,1.86-2.64,6.72Zm6.56-2.63h-6.3v-1.44h6.3v1.44Z"/><path class="cls-1" d="M161.91,64.95h-1.61v-10.05h1.61v10.05Zm2.66-3.24h-3.66v-1.44h3.86c.67,0,1.15-.15,1.43-.44,.28-.29,.42-.8,.42-1.52s-.14-1.23-.42-1.52c-.28-.29-.76-.44-1.43-.44h-3.86v-1.46h3.66c.7,0,1.33,.14,1.88,.41s.98,.66,1.3,1.16c.32,.5,.47,1.12,.47,1.85s-.16,1.33-.47,1.84c-.31,.51-.75,.89-1.3,1.16s-1.18,.4-1.88,.4Z"/><path class="cls-1" d="M170.93,64.95h-1.61v-10.05h4.31c.74,0,1.38,.12,1.92,.35,.54,.24,.96,.58,1.25,1.02s.44,.99,.44,1.63c0,.54-.11,1.02-.32,1.43-.22,.41-.53,.73-.95,.95s-.92,.35-1.52,.38v.12c.37,.12,.67,.29,.91,.52s.45,.51,.64,.86l1.52,2.79h-1.89l-1.43-2.6c-.15-.29-.31-.53-.48-.73-.17-.19-.38-.33-.63-.42-.25-.08-.58-.13-.98-.13h-1.19v3.87Zm0-8.6v3.39h2.9c.65,0,1.12-.13,1.4-.39,.28-.26,.42-.7,.42-1.32s-.14-1.02-.42-1.28c-.28-.26-.75-.4-1.4-.4h-2.9Z"/><path class="cls-1" d="M182.87,65.1c-.95,0-1.78-.21-2.48-.64-.71-.43-1.25-1.03-1.63-1.8-.38-.78-.57-1.69-.57-2.74s.19-1.96,.57-2.74c.38-.77,.92-1.38,1.63-1.8s1.53-.64,2.48-.64,1.78,.21,2.48,.64c.71,.43,1.25,1.03,1.63,1.8,.38,.78,.57,1.69,.57,2.74s-.19,1.96-.57,2.74c-.38,.78-.92,1.38-1.63,1.8-.71,.42-1.53,.64-2.48,.64Zm0-1.56c.7,0,1.27-.12,1.7-.36s.75-.62,.95-1.16c.21-.53,.31-1.23,.31-2.1s-.1-1.58-.31-2.11-.52-.91-.95-1.15-1-.36-1.7-.36-1.26,.12-1.7,.36-.76,.62-.97,1.15-.31,1.23-.31,2.11,.1,1.57,.31,2.1c.21,.53,.53,.92,.97,1.16s1.01,.36,1.7,.36Z"/><path class="cls-1" d="M193.66,64.95h-4.8v-10.05h4.62c.65,0,1.21,.09,1.68,.27s.83,.46,1.08,.83c.25,.37,.38,.84,.38,1.41s-.16,1.06-.49,1.44c-.33,.38-.82,.62-1.48,.72v.12c.78,.09,1.37,.37,1.76,.83,.39,.46,.58,1.02,.58,1.68,0,.57-.13,1.06-.4,1.47-.27,.41-.65,.73-1.14,.95-.5,.23-1.09,.34-1.79,.34Zm-3.2-8.6v2.7h2.87c.6,0,1.03-.1,1.29-.29,.26-.2,.39-.55,.39-1.06s-.12-.85-.37-1.05c-.25-.2-.67-.3-1.27-.3h-2.91Zm0,4.07v3.06h3.14c.61,0,1.06-.1,1.34-.31,.28-.21,.42-.62,.42-1.22s-.14-.99-.43-1.21c-.29-.21-.73-.32-1.33-.32h-3.14Z"/><path class="cls-1" d="M199.98,64.95h-1.61v-10.05h1.61v10.05Zm5.36,0h-6.5v-1.47h6.5v1.47Z"/><path class="cls-1" d="M207.71,64.95h-1.61v-10.05h1.61v10.05Zm5.57-8.6h-6.69v-1.46h6.69v1.46Zm-.23,4.28h-6.47v-1.47h6.47v1.47Zm.23,4.32h-6.69v-1.47h6.69v1.47Z"/><path class="cls-1" d="M216.21,64.95h-1.61v-10.05h2.28l2.31,5.52,.87,2.4h.12l.87-2.4,2.25-5.52h2.3v10.05h-1.61v-5.94l.06-1.7h-.1l-.62,1.7-2.27,5.34h-1.95l-2.27-5.34-.6-1.7h-.14l.09,1.7v5.94Z"/><path class="cls-1" d="M228.98,64.95h-2.07v-2.33h2.07v2.33Z"/><path class="cls-1" d="M231.98,64.95h-2.07v-2.33h2.07v2.33Z"/><path class="cls-1" d="M234.98,64.95h-2.07v-2.33h2.07v2.33Z"/><path class="cls-1" d="M136.71,82.6h-1.61v-10.05h4.31c.74,0,1.38,.12,1.92,.35,.54,.23,.96,.58,1.25,1.02,.29,.45,.44,.99,.44,1.63,0,.54-.11,1.01-.32,1.42s-.53,.73-.95,.95c-.42,.22-.92,.35-1.52,.38v.12c.37,.12,.67,.29,.91,.52,.23,.22,.45,.51,.64,.86l1.52,2.79h-1.89l-1.43-2.6c-.15-.29-.31-.53-.48-.73-.17-.2-.38-.33-.63-.42-.25-.08-.58-.13-.98-.13h-1.19v3.87Zm0-8.6v3.39h2.9c.65,0,1.12-.13,1.4-.39,.28-.26,.42-.7,.42-1.32s-.14-1.02-.42-1.28c-.28-.26-.75-.4-1.4-.4h-2.9Z"/><path class="cls-1" d="M145.83,82.6h-1.61v-10.05h1.61v10.05Zm5.57-8.6h-6.69v-1.46h6.69v1.46Zm-.23,4.28h-6.47v-1.47h6.47v1.47Zm.23,4.32h-6.69v-1.47h6.69v1.47Z"/><path class="cls-1" d="M154.34,82.6h-1.61v-10.05h1.61v10.05Zm5.51-8.6h-6.63v-1.46h6.63v1.46Zm-.23,4.56h-6.41v-1.46h6.41v1.46Z"/><path class="cls-1" d="M162.67,82.6h-1.61v-10.05h1.61v10.05Z"/><path class="cls-1" d="M166.01,82.6h-1.61v-10.05h1.61v10.05Zm5.36,0h-6.5v-1.47h6.5v1.47Z"/><path class="cls-1" d="M173.74,82.6h-1.61v-10.05h1.61v10.05Zm5.36,0h-6.5v-1.47h6.5v1.47Z"/><path class="cls-1" d="M185.15,74.24c-.25,.21-.38,.57-.38,1.1s.14,.87,.41,1.07c.27,.21,.67,.31,1.18,.31h5.81v1.35h-5.81c-.64,0-1.12,.11-1.44,.34-.32,.22-.48,.66-.48,1.3,0,.38,.06,.69,.2,.92,.13,.23,.35,.4,.68,.5,.32,.09,.77,.14,1.34,.14,.61,0,1.08-.06,1.42-.19,.33-.12,.57-.33,.7-.61,.13-.28,.19-.66,.19-1.14v-4.19h1.59v4.2c0,.7-.14,1.31-.42,1.82-.28,.51-.71,.91-1.3,1.18-.59,.27-1.34,.41-2.26,.41-1.21,0-2.14-.24-2.8-.72s-.98-1.2-.98-2.16c0-.49,.09-.91,.28-1.25,.19-.35,.44-.62,.76-.83,.32-.21,.69-.35,1.12-.41v-.08c-.59-.1-1.04-.36-1.34-.78s-.46-.92-.46-1.5,.14-1.08,.42-1.46c.28-.39,.68-.67,1.19-.85,.51-.18,1.11-.27,1.8-.27h1.61v1.49h-1.85c-.53,0-.92,.1-1.17,.31Z"/><path class="cls-1" d="M197.6,82.6h-1.61v-10.05h4.31c.74,0,1.38,.12,1.92,.35,.54,.23,.96,.58,1.25,1.02,.29,.45,.44,.99,.44,1.63,0,.54-.11,1.01-.32,1.42s-.53,.73-.95,.95c-.42,.22-.92,.35-1.52,.38v.12c.37,.12,.67,.29,.91,.52,.23,.22,.45,.51,.64,.86l1.52,2.79h-1.89l-1.43-2.6c-.15-.29-.31-.53-.48-.73-.17-.2-.38-.33-.63-.42-.25-.08-.58-.13-.98-.13h-1.19v3.87Zm0-8.6v3.39h2.9c.65,0,1.12-.13,1.4-.39,.28-.26,.42-.7,.42-1.32s-.14-1.02-.42-1.28c-.28-.26-.75-.4-1.4-.4h-2.9Z"/><path class="cls-1" d="M206.72,82.6h-1.61v-10.05h1.61v10.05Zm5.57-8.6h-6.69v-1.46h6.69v1.46Zm-.23,4.28h-6.47v-1.47h6.47v1.47Zm.23,4.32h-6.69v-1.47h6.69v1.47Z"/><path class="cls-1" d="M217.6,82.75c-.95,0-1.73-.14-2.35-.41-.61-.27-1.07-.66-1.37-1.16s-.44-1.07-.44-1.72v-.24h1.59v.17c0,.41,.07,.75,.22,1.04s.41,.49,.79,.63c.38,.14,.92,.21,1.64,.21,.75,0,1.27-.11,1.57-.32,.29-.21,.44-.55,.44-1.01,0-.31-.04-.56-.13-.76-.09-.2-.27-.35-.53-.47-.27-.12-.66-.23-1.18-.33l-1.71-.34c-.58-.11-1.07-.28-1.46-.52-.39-.24-.69-.54-.89-.91s-.31-.82-.31-1.33,.13-.97,.4-1.4,.68-.79,1.23-1.06c.56-.27,1.26-.41,2.12-.41,.92,0,1.67,.16,2.24,.46,.58,.31,1,.72,1.26,1.22,.26,.51,.4,1.06,.4,1.66v.18h-1.61v-.17c0-.42-.07-.77-.2-1.04-.13-.28-.38-.49-.72-.63-.35-.14-.81-.22-1.4-.22-.75,0-1.29,.11-1.61,.33-.32,.22-.49,.54-.49,.97,0,.31,.05,.56,.16,.74,.11,.18,.29,.32,.55,.43,.26,.11,.62,.21,1.08,.32l1.71,.36c.63,.13,1.15,.32,1.55,.58,.4,.25,.7,.57,.89,.95s.29,.82,.29,1.33-.13,1-.39,1.44c-.26,.44-.66,.79-1.21,1.05s-1.25,.39-2.11,.39Z"/><path class="cls-1" d="M224.1,82.6h-1.61v-10.05h1.61v10.05Zm5.57-8.6h-6.69v-1.46h6.69v1.46Zm-.23,4.28h-6.47v-1.47h6.47v1.47Zm.23,4.32h-6.69v-1.47h6.69v1.47Z"/><path class="cls-1" d="M232.61,82.6h-1.61v-10.05h1.73l3.81,5.76,1.07,1.61h.12v-7.37h1.61v10.05h-1.72l-3.8-5.67-1.09-1.64h-.1v7.31Z"/><path class="cls-1" d="M242.67,82.6h-1.61v-10.05h1.61v10.05Zm1.95,0h-3.03v-1.47h3.03c.8,0,1.45-.11,1.94-.34s.86-.61,1.08-1.13c.23-.53,.34-1.22,.34-2.08s-.11-1.57-.34-2.09c-.22-.52-.58-.9-1.08-1.13-.5-.23-1.14-.34-1.94-.34h-3.03v-1.46h3.03c1.04,0,1.94,.2,2.7,.61,.76,.41,1.35,.98,1.76,1.73,.42,.75,.62,1.65,.62,2.69s-.21,1.92-.62,2.67c-.42,.75-1,1.33-1.76,1.74-.76,.41-1.66,.62-2.7,.62Z"/></g><g><polygon class="cls-2" points=".5 .61 20.06 4.68 20.06 18.58 .5 15.54 .5 .61"/><polygon class="cls-2" points="20.06 4.68 37.13 8.22 37.13 21.24 20.06 18.58 20.06 4.68"/><polygon class="cls-2" points="37.13 8.22 52.15 11.34 52.15 23.58 37.13 21.24 37.13 8.22"/><polygon class="cls-2" points="52.15 11.34 65.48 14.11 65.48 25.66 52.15 23.58 52.15 11.34"/><polygon class="cls-2" points="65.48 14.11 77.37 16.58 77.37 27.51 65.48 25.66 65.48 14.11"/><polygon class="cls-2" points="77.37 16.58 88.06 18.8 88.06 29.18 77.37 27.51 77.37 16.58"/><polygon class="cls-2" points="88.06 18.8 97.72 20.81 97.72 30.68 88.06 29.18 88.06 18.8"/><polygon class="cls-2" points=".5 15.54 20.06 18.58 20.06 32.49 .5 30.46 .5 15.54"/><polygon class="cls-2" points="20.06 18.58 37.13 21.24 37.13 34.26 20.06 32.49 20.06 18.58"/><polygon class="cls-2" points="37.13 21.24 52.15 23.58 52.15 35.82 37.13 34.26 37.13 21.24"/><polygon class="cls-2" points="52.15 23.58 65.48 25.66 65.48 37.21 52.15 35.82 52.15 23.58"/><polygon class="cls-2" points="65.48 25.66 77.37 27.51 77.37 38.44 65.48 37.21 65.48 25.66"/><polygon class="cls-2" points="77.37 27.51 88.06 29.18 88.06 39.55 77.37 38.44 77.37 27.51"/><polygon class="cls-2" points="88.06 29.18 97.72 30.68 97.72 40.56 88.06 39.55 88.06 29.18"/><polygon class="cls-2" points=".5 30.46 20.06 32.49 20.06 46.39 .5 45.38 .5 30.46"/><polygon class="cls-2" points="20.06 32.49 37.13 34.26 37.13 47.28 20.06 46.39 20.06 32.49"/><polygon class="cls-2" points="37.13 34.26 52.15 35.82 52.15 48.06 37.13 47.28 37.13 34.26"/><polygon class="cls-2" points="52.15 35.82 65.48 37.21 65.48 48.75 52.15 48.06 52.15 35.82"/><polygon class="cls-2" points="65.48 37.21 77.37 38.44 77.37 49.37 65.48 48.75 65.48 37.21"/><polygon class="cls-2" points="77.37 38.44 88.06 39.55 88.06 49.93 77.37 49.37 77.37 38.44"/><polygon class="cls-2" points="88.06 39.55 97.72 40.56 97.72 50.43 88.06 49.93 88.06 39.55"/><polygon class="cls-2" points=".5 45.38 20.06 46.39 20.06 60.3 .5 60.3 .5 45.38"/><polygon class="cls-2" points="20.06 46.39 37.13 47.28 37.13 60.3 20.06 60.3 20.06 46.39"/><polygon class="cls-2" points="37.13 47.28 52.15 48.06 52.15 60.3 37.13 60.3 37.13 47.28"/><polygon class="cls-2" points="52.15 48.06 65.48 48.75 65.48 60.3 52.15 60.3 52.15 48.06"/><polygon class="cls-2" points="65.48 48.75 77.37 49.37 77.37 60.3 65.48 60.3 65.48 48.75"/><polygon class="cls-2" points="77.37 49.37 88.06 49.93 88.06 60.3 77.37 60.3 77.37 49.37"/><polygon class="cls-2" points="88.06 49.93 97.72 50.43 97.72 60.3 88.06 60.3 88.06 49.93"/><polygon class="cls-2" points=".5 60.3 20.06 60.3 20.06 74.21 .5 75.22 .5 60.3"/><polygon class="cls-2" points="20.06 60.3 37.13 60.3 37.13 73.32 20.06 74.21 20.06 60.3"/><polygon class="cls-2" points="37.13 60.3 52.15 60.3 52.15 72.54 37.13 73.32 37.13 60.3"/><polygon class="cls-2" points="52.15 60.3 65.48 60.3 65.48 71.85 52.15 72.54 52.15 60.3"/><polygon class="cls-2" points="65.48 60.3 77.37 60.3 77.37 71.23 65.48 71.85 65.48 60.3"/><polygon class="cls-2" points="77.37 60.3 88.06 60.3 88.06 70.67 77.37 71.23 77.37 60.3"/><polygon class="cls-2" points="88.06 60.3 97.72 60.3 97.72 70.17 88.06 70.67 88.06 60.3"/><polygon class="cls-2" points=".5 75.22 20.06 74.21 20.06 88.11 .5 90.14 .5 75.22"/><polygon class="cls-2" points="20.06 74.21 37.13 73.32 37.13 86.34 20.06 88.11 20.06 74.21"/><polygon class="cls-2" points="37.13 73.32 52.15 72.54 52.15 84.78 37.13 86.34 37.13 73.32"/><polygon class="cls-2" points="52.15 72.54 65.48 71.85 65.48 83.39 52.15 84.78 52.15 72.54"/><polygon class="cls-2" points="65.48 71.85 77.37 71.23 77.37 82.16 65.48 83.39 65.48 71.85"/><polygon class="cls-2" points="77.37 71.23 88.06 70.67 88.06 81.05 77.37 82.16 77.37 71.23"/><polygon class="cls-2" points="88.06 70.67 97.72 70.17 97.72 80.04 88.06 81.05 88.06 70.67"/><polygon class="cls-2" points=".5 90.14 20.06 88.11 20.06 102.02 .5 105.06 .5 90.14"/><polygon class="cls-2" points="20.06 88.11 37.13 86.34 37.13 99.36 20.06 102.02 20.06 88.11"/><polygon class="cls-2" points="37.13 86.34 52.15 84.78 52.15 97.02 37.13 99.36 37.13 86.34"/><polygon class="cls-2" points="52.15 84.78 65.48 83.39 65.48 94.94 52.15 97.02 52.15 84.78"/><polygon class="cls-2" points="65.48 83.39 77.37 82.16 77.37 93.09 65.48 94.94 65.48 83.39"/><polygon class="cls-2" points="77.37 82.16 88.06 81.05 88.06 91.42 77.37 93.09 77.37 82.16"/><polygon class="cls-2" points="88.06 81.05 97.72 80.04 97.72 89.92 88.06 91.42 88.06 81.05"/><polygon class="cls-2" points=".5 105.06 20.06 102.02 20.06 115.92 .5 119.99 .5 105.06"/><polygon class="cls-2" points="20.06 102.02 37.13 99.36 37.13 112.38 20.06 115.92 20.06 102.02"/><polygon class="cls-2" points="37.13 99.36 52.15 97.02 52.15 109.25 37.13 112.38 37.13 99.36"/><polygon class="cls-2" points="52.15 97.02 65.48 94.94 65.48 106.49 52.15 109.25 52.15 97.02"/><polygon class="cls-2" points="65.48 94.94 77.37 93.09 77.37 104.02 65.48 106.49 65.48 94.94"/><polygon class="cls-2" points="77.37 93.09 88.06 91.42 88.06 101.79 77.37 104.02 77.37 93.09"/><polygon class="cls-2" points="88.06 91.42 97.72 89.92 97.72 99.79 88.06 101.79 88.06 91.42"/></g><g><polygon class="cls-2" points="387.2 .61 367.64 4.68 367.64 18.58 387.2 15.54 387.2 .61"/><polygon class="cls-2" points="367.64 4.68 350.57 8.22 350.57 21.24 367.64 18.58 367.64 4.68"/><polygon class="cls-2" points="350.57 8.22 335.55 11.34 335.55 23.58 350.57 21.24 350.57 8.22"/><polygon class="cls-2" points="335.55 11.34 322.23 14.11 322.23 25.66 335.55 23.58 335.55 11.34"/><polygon class="cls-2" points="322.23 14.11 310.33 16.58 310.33 27.51 322.23 25.66 322.23 14.11"/><polygon class="cls-2" points="310.33 16.58 299.64 18.8 299.64 29.18 310.33 27.51 310.33 16.58"/><polygon class="cls-2" points="299.64 18.8 289.99 20.81 289.99 30.68 299.64 29.18 299.64 18.8"/><polygon class="cls-2" points="387.2 15.54 367.64 18.58 367.64 32.49 387.2 30.46 387.2 15.54"/><polygon class="cls-2" points="367.64 18.58 350.57 21.24 350.57 34.26 367.64 32.49 367.64 18.58"/><polygon class="cls-2" points="350.57 21.24 335.55 23.58 335.55 35.82 350.57 34.26 350.57 21.24"/><polygon class="cls-2" points="335.55 23.58 322.23 25.66 322.23 37.21 335.55 35.82 335.55 23.58"/><polygon class="cls-2" points="322.23 25.66 310.33 27.51 310.33 38.44 322.23 37.21 322.23 25.66"/><polygon class="cls-2" points="310.33 27.51 299.64 29.18 299.64 39.55 310.33 38.44 310.33 27.51"/><polygon class="cls-2" points="299.64 29.18 289.99 30.68 289.99 40.56 299.64 39.55 299.64 29.18"/><polygon class="cls-2" points="387.2 30.46 367.64 32.49 367.64 46.39 387.2 45.38 387.2 30.46"/><polygon class="cls-2" points="367.64 32.49 350.57 34.26 350.57 47.28 367.64 46.39 367.64 32.49"/><polygon class="cls-2" points="350.57 34.26 335.55 35.82 335.55 48.06 350.57 47.28 350.57 34.26"/><polygon class="cls-2" points="335.55 35.82 322.23 37.21 322.23 48.75 335.55 48.06 335.55 35.82"/><polygon class="cls-2" points="322.23 37.21 310.33 38.44 310.33 49.37 322.23 48.75 322.23 37.21"/><polygon class="cls-2" points="310.33 38.44 299.64 39.55 299.64 49.93 310.33 49.37 310.33 38.44"/><polygon class="cls-2" points="299.64 39.55 289.99 40.56 289.99 50.43 299.64 49.93 299.64 39.55"/><polygon class="cls-2" points="387.2 45.38 367.64 46.39 367.64 60.3 387.2 60.3 387.2 45.38"/><polygon class="cls-2" points="367.64 46.39 350.57 47.28 350.57 60.3 367.64 60.3 367.64 46.39"/><polygon class="cls-2" points="350.57 47.28 335.55 48.06 335.55 60.3 350.57 60.3 350.57 47.28"/><polygon class="cls-2" points="335.55 48.06 322.23 48.75 322.23 60.3 335.55 60.3 335.55 48.06"/><polygon class="cls-2" points="322.23 48.75 310.33 49.37 310.33 60.3 322.23 60.3 322.23 48.75"/><polygon class="cls-2" points="310.33 49.37 299.64 49.93 299.64 60.3 310.33 60.3 310.33 49.37"/><polygon class="cls-2" points="299.64 49.93 289.99 50.43 289.99 60.3 299.64 60.3 299.64 49.93"/><polygon class="cls-2" points="387.2 60.3 367.64 60.3 367.64 74.21 387.2 75.22 387.2 60.3"/><polygon class="cls-2" points="367.64 60.3 350.57 60.3 350.57 73.32 367.64 74.21 367.64 60.3"/><polygon class="cls-2" points="350.57 60.3 335.55 60.3 335.55 72.54 350.57 73.32 350.57 60.3"/><polygon class="cls-2" points="335.55 60.3 322.23 60.3 322.23 71.85 335.55 72.54 335.55 60.3"/><polygon class="cls-2" points="322.23 60.3 310.33 60.3 310.33 71.23 322.23 71.85 322.23 60.3"/><polygon class="cls-2" points="310.33 60.3 299.64 60.3 299.64 70.67 310.33 71.23 310.33 60.3"/><polygon class="cls-2" points="299.64 60.3 289.99 60.3 289.99 70.17 299.64 70.67 299.64 60.3"/><polygon class="cls-2" points="387.2 75.22 367.64 74.21 367.64 88.11 387.2 90.14 387.2 75.22"/><polygon class="cls-2" points="367.64 74.21 350.57 73.32 350.57 86.34 367.64 88.11 367.64 74.21"/><polygon class="cls-2" points="350.57 73.32 335.55 72.54 335.55 84.78 350.57 86.34 350.57 73.32"/><polygon class="cls-2" points="335.55 72.54 322.23 71.85 322.23 83.39 335.55 84.78 335.55 72.54"/><polygon class="cls-2" points="322.23 71.85 310.33 71.23 310.33 82.16 322.23 83.39 322.23 71.85"/><polygon class="cls-2" points="310.33 71.23 299.64 70.67 299.64 81.05 310.33 82.16 310.33 71.23"/><polygon class="cls-2" points="299.64 70.67 289.99 70.17 289.99 80.04 299.64 81.05 299.64 70.67"/><polygon class="cls-2" points="387.2 90.14 367.64 88.11 367.64 102.02 387.2 105.06 387.2 90.14"/><polygon class="cls-2" points="367.64 88.11 350.57 86.34 350.57 99.36 367.64 102.02 367.64 88.11"/><polygon class="cls-2" points="350.57 86.34 335.55 84.78 335.55 97.02 350.57 99.36 350.57 86.34"/><polygon class="cls-2" points="335.55 84.78 322.23 83.39 322.23 94.94 335.55 97.02 335.55 84.78"/><polygon class="cls-2" points="322.23 83.39 310.33 82.16 310.33 93.09 322.23 94.94 322.23 83.39"/><polygon class="cls-2" points="310.33 82.16 299.64 81.05 299.64 91.42 310.33 93.09 310.33 82.16"/><polygon class="cls-2" points="299.64 81.05 289.99 80.04 289.99 89.92 299.64 91.42 299.64 81.05"/><polygon class="cls-2" points="387.2 105.06 367.64 102.02 367.64 115.92 387.2 119.99 387.2 105.06"/><polygon class="cls-2" points="367.64 102.02 350.57 99.36 350.57 112.38 367.64 115.92 367.64 102.02"/><polygon class="cls-2" points="350.57 99.36 335.55 97.02 335.55 109.25 350.57 112.38 350.57 99.36"/><polygon class="cls-2" points="335.55 97.02 322.23 94.94 322.23 106.49 335.55 109.25 335.55 97.02"/><polygon class="cls-2" points="322.23 94.94 310.33 93.09 310.33 104.02 322.23 106.49 322.23 94.94"/><polygon class="cls-2" points="310.33 93.09 299.64 91.42 299.64 101.79 310.33 104.02 310.33 93.09"/><polygon class="cls-2" points="299.64 91.42 289.99 89.92 289.99 99.79 299.64 101.79 299.64 91.42"/></g></svg>