<svg viewBox="0 0 330 333" fill="none" xmlns="http://www.w3.org/2000/svg">
    <g clip-path="url(#clip0_121_19)">
        <path d="M231.49 99.06V155.85H212.77V195.42H193.36V214.15H153.33V233.47H96.64V215.03H57.96V196.08H38.81V155.74H19.73V99.06H38.49V60.02H58.22V40.36H96.64V20.51H154.39V40.93H192.34V60.17H211.92V99.06H231.49Z"
              fill="#D35D3C"/>
        <path d="M329.08 291.23V332.17H289.25V312.6H270.19V293.03H250.44V273.53H231.38V254.13H212.77V234.64H154.56V253.96H95.62V234.64H57.07V215.87H38.17V196.98H19.02V156.51H0V97.81H18.77V39.59H57.19V19.93H96V0H154.39V20.51H96.64V40.36H58.22V60.02H38.49V99.06H19.73V155.74H38.81V196.08H57.96V215.03H96.64V233.47H153.33V214.15H193.36V195.42H212.77V155.85H231.49V99.06H211.92V60.17H192.34V40.93H154.39V20.51H193.7V39.74H212.77V59.17H232.34V98.32H251.92V157.79H233.19V214.14H251.81V233.64H270.87V253.21H290.61V272.79H309.68V291.23H329.08Z"
              fill="white"/>
        <path d="M174.36 121H136.34V82.98H114.06V121H76.04V143.28H114.06V181.3H136.34V143.28H174.36V121Z" fill="white"/>
        <path d="M299.33 300.57V280.52H279.33V260.44H259.92V241.12H241.88V223.08H226.4V207.33H212.44V193.04H191.66V213.82H205.62V228.12H221.1V243.86H239.14V261.9H258.54V281.22H278.54V301.31H298.2V321.35H318.99V300.57H299.33Z"
              fill="#D35D3C"/>
    </g>
    <defs>
        <clipPath id="clip0_121_19">
            <rect width="329.08" height="332.17" fill="white"/>
        </clipPath>
    </defs>
</svg>
