<svg width="39" height="39" viewBox="0 0 39 39" fill="none" xmlns="http://www.w3.org/2000/svg">
<g clip-path="url(#clip0_1_143)">
<path d="M35.75 11.375H24.375V8.125H35.75V11.375ZM38.5548 27.625C37.8365 29.7326 35.2576 32.5 30.2656 32.5C25.2704 32.5 21.2241 29.6904 21.2241 23.2781C21.2241 16.9244 25.0023 13.6581 30.1064 13.6581C35.1146 13.6581 38.1729 16.5539 38.8408 20.8504C38.9675 21.6726 39.0179 22.7809 38.9951 24.3279H25.9513C26.1625 29.5457 31.6111 29.7099 33.4068 27.625H38.5548ZM26.065 21.125H34.1331C33.9625 18.6111 32.2871 17.5191 30.108 17.5191C27.7258 17.5191 26.4079 18.7671 26.065 21.125ZM10.5073 32.4805H0V8.15912H11.2986C20.1971 8.29075 20.3661 17.0056 15.7186 19.3814C21.3428 21.4289 21.5313 32.4805 10.5073 32.4805ZM4.875 17.875H10.699C14.7745 17.875 15.4213 13 10.192 13H4.875V17.875ZM10.3854 22.75H4.875V27.651H10.3041C15.2685 27.651 14.9646 22.75 10.3854 22.75Z" fill="white"/>
</g>
<defs>
<clipPath id="clip0_1_143">
<rect width="39" height="39" fill="white"/>
</clipPath>
</defs>
</svg>
