<svg width="40" height="25" viewBox="0 0 40 25" fill="none" xmlns="http://www.w3.org/2000/svg">
    <path d="M36.32 3.375H24.9449V0.125H36.32V3.375ZM39.1247 19.625C38.4064 21.7326 35.8276 24.5 30.8356 24.5C25.8403 24.5 21.7941 21.6904 21.7941 15.2781C21.7941 8.92437 25.5722 5.65812 30.6763 5.65812C35.6846 5.65812 38.7428 8.55387 39.4107 12.8504C39.5374 13.6726 39.5878 14.7809 39.5651 16.3279H26.5212C26.7324 21.5457 32.1811 21.7099 33.9767 19.625H39.1247ZM26.635 13.125H34.7031C34.5324 10.6111 32.8571 9.51912 30.6779 9.51912C28.2957 9.51912 26.9778 10.7671 26.635 13.125ZM11.0772 24.4805H0.569946V0.159125H11.8686C20.7671 0.29075 20.9361 9.00562 16.2886 11.3814C21.9127 13.4289 22.1012 24.4805 11.0772 24.4805ZM5.44495 9.875H11.2689C15.3444 9.875 15.9912 5 10.7619 5H5.44495V9.875ZM10.9553 14.75H5.44495V19.651H10.8741C15.8384 19.651 15.5346 14.75 10.9553 14.75Z"
          fill="white"/>
</svg>
