<?xml version="1.0" encoding="UTF-8"?><svg id="Layer_2" xmlns="http://www.w3.org/2000/svg" viewBox="0 0 164.68 375.24"><defs><style>.cls-1{fill:none;stroke:#fff;stroke-miterlimit:10;}</style></defs><g id="Layer_1-2"><g><polygon class="cls-1" points=".5 288.59 .5 86.65 164.18 .83 164.18 374.41 .5 288.59"/><line class="cls-1" x1="138.63" y1="361.02" x2="138.63" y2="14.23"/><line class="cls-1" x1="116.5" y1="349.41" x2="116.5" y2="25.83"/><line class="cls-1" x1="97.14" y1="339.26" x2="97.14" y2="35.98"/><line class="cls-1" x1="80.07" y1="330.31" x2="80.07" y2="44.93"/><line class="cls-1" x1="64.9" y1="322.36" x2="64.9" y2="52.88"/><line class="cls-1" x1="51.33" y1="315.24" x2="51.33" y2="60"/><line class="cls-1" x1="39.13" y1="308.84" x2="39.13" y2="66.4"/><line class="cls-1" x1="28.09" y1="303.06" x2="28.09" y2="72.19"/><line class="cls-1" x1="18.05" y1="297.79" x2="18.05" y2="77.45"/><line class="cls-1" x1="8.89" y1="292.99" x2="8.89" y2="82.25"/><line class="cls-1" x1=".5" y1="105.01" x2="164.18" y2="34.79"/><line class="cls-1" x1=".5" y1="123.37" x2="164.18" y2="68.75"/><line class="cls-1" x1=".5" y1="141.73" x2="164.18" y2="102.71"/><line class="cls-1" x1=".5" y1="160.08" x2="164.18" y2="136.68"/><line class="cls-1" x1=".5" y1="178.44" x2="164.18" y2="170.64"/><line class="cls-1" x1=".5" y1="196.8" x2="164.18" y2="204.6"/><line class="cls-1" x1=".5" y1="215.16" x2="164.18" y2="238.56"/><line class="cls-1" x1=".5" y1="233.52" x2="164.18" y2="272.53"/><line class="cls-1" x1=".5" y1="251.87" x2="164.18" y2="306.49"/><line class="cls-1" x1=".5" y1="270.23" x2="164.18" y2="340.45"/></g></g></svg>