<svg width="29" height="28" viewBox="0 0 29 28" fill="none" xmlns="http://www.w3.org/2000/svg">
<g clip-path="url(#clip0_1_125)">
<path d="M6.21233 27.3186H0V8.69279H6.21233V27.3186ZM3.10616 6.21233C1.38548 6.21233 0 4.81567 0 3.10616C0 1.39666 1.38548 0 3.10616 0C4.82684 0 6.21233 1.39666 6.21233 3.10616C6.21233 4.81567 4.81567 6.21233 3.10616 6.21233ZM28.57 27.3186H22.6035V18.2571C22.6035 16.0895 22.5588 13.3185 19.4973 13.3185C16.4359 13.3185 15.9107 15.6761 15.9107 18.1007V27.3186H9.94419V8.68162H15.6761V11.2291H15.7543C16.5476 9.76542 18.5029 8.22351 21.4079 8.22351C27.4527 8.22351 28.57 12.0895 28.57 17.1062V27.3298V27.3186Z" fill="white"/>
</g>
<defs>
<clipPath id="clip0_1_125">
<rect width="28.57" height="27.3186" fill="white"/>
</clipPath>
</defs>
</svg>
