<svg width="22" height="22" viewBox="0 0 29 29" fill="none" xmlns="http://www.w3.org/2000/svg">
    <path d="M6.21233 28.1593H0V9.53349H6.21233V28.1593ZM3.10616 7.05303C1.38548 7.05303 0 5.65637 0 3.94686C0 2.23735 1.38548 0.840698 3.10616 0.840698C4.82684 0.840698 6.21233 2.23735 6.21233 3.94686C6.21233 5.65637 4.81567 7.05303 3.10616 7.05303ZM28.57 28.1593H22.6035V19.0978C22.6035 16.9302 22.5588 14.1592 19.4973 14.1592C16.4359 14.1592 15.9107 16.5168 15.9107 18.9414V28.1593H9.94419V9.52232H15.6761V12.0698H15.7543C16.5476 10.6061 18.5029 9.06421 21.4079 9.06421C27.4527 9.06421 28.57 12.9302 28.57 17.9469V28.1705V28.1593Z"/>
</svg>
